<?xml version="1.0" encoding="utf-8"?>
<!-- Generator: Adobe Illustrator 22.0.0, SVG Export Plug-In . SVG Version: 6.00 Build 0)  -->
<svg version="1.1" id="Layer_1" xmlns="http://www.w3.org/2000/svg" xmlns:xlink="http://www.w3.org/1999/xlink" x="0px" y="0px"
	 viewBox="0 0 393.6 393.6" style="enable-background:new 0 0 393.6 393.6;" xml:space="preserve">
<style type="text/css">
	.st0{opacity:0.62;fill:#1D1D4C;enable-background:new    ;}
	.st1{fill:url(#SVGID_1_);}
	.st2{fill:url(#SVGID_2_);}
	.st3{fill:url(#SVGID_3_);}
	.st4{fill:url(#SVGID_4_);}
	.st5{fill:url(#SVGID_5_);}
	.st6{fill:url(#SVGID_6_);}
	.st7{fill:url(#SVGID_7_);}
	.st8{fill:url(#SVGID_8_);}
	.st9{fill:url(#SVGID_9_);}
	.st10{fill:url(#SVGID_10_);}
	.st11{fill:url(#SVGID_11_);}
	.st12{fill:url(#SVGID_12_);}
	.st13{fill:url(#SVGID_13_);}
	.st14{fill:url(#SVGID_14_);}
	.st15{fill:url(#SVGID_15_);}
	.st16{fill:url(#SVGID_16_);}
	.st17{fill:none;}
	.st18{fill:url(#SVGID_17_);}
	.st19{fill:#1D1D4C;}
	.st20{fill:url(#SVGID_18_);}
	.st21{fill:url(#SVGID_19_);}
	.st22{fill:url(#SVGID_20_);}
	.st23{fill:url(#SVGID_21_);}
	.st24{fill:url(#SVGID_22_);}
	.st25{fill:url(#SVGID_23_);}
	.st26{fill:url(#SVGID_24_);}
	.st27{fill:url(#SVGID_25_);}
	.st28{fill:url(#SVGID_26_);}
	.st29{fill:url(#SVGID_27_);}
	.st30{fill:url(#SVGID_28_);}
	.st31{fill:url(#SVGID_29_);}
	.st32{fill:url(#SVGID_30_);}
	.st33{fill:url(#SVGID_31_);}
	.st34{fill:url(#SVGID_32_);}
	.st35{fill:url(#SVGID_33_);}
	.st36{fill:url(#SVGID_34_);}
</style>
<polygon class="st17" points="212.6,178.6 213.8,182.3 234.8,160.3 195.4,114.7 178.6,131.5 177.9,132.3 175.4,150.2 173.2,154.4 
	170.5,156.9 140.8,184.7 140.7,185 140.5,189.6 204.2,174 "/>
<path class="st0" d="M204.6,199.7c0.6,0.1,0.9-0.7,1.4-1c0,0,0,0,0,0c0.3-0.2,0.6-0.4,0.9-0.7c0,0,0.1-0.1,0.1-0.1
	c0,0,0.1-0.1,0.1-0.1c0.2-0.1,0.3-0.3,0.5-0.4c0.3-0.2,0.6-0.5,0.9-0.7c0,0,0.1,0,0.1-0.1c2.6-2,3.6-4,4.3-7.1c1-4.8,5.5-0.1,9.3,0
	c1.1,0,9,8.1,16.9,16.3l31.5-33.1l6.5-6.8l0.2-9.4l-6.1-7.1l-63.3-73l-8.7-10.1l-17.1-19.8l-12.3,4.8l1.1,31.1l0.2,1.5l0.5,1.9
	L172,89l-25.1,25.2l-2,3.9l-0.5,3.5l-2,14.1l-30.7,28.8l-3.1,2.9l-2.2,4.9l-0.1,4.2l-1.1,34.7l-0.5,16.2l9.8,6.6l14-6.1l70.6-30.3
	l-6.3,6.7C197.3,201.2,201.6,199.3,204.6,199.7z M140.5,189.6l0.2-4.6l0.1-0.3l29.7-27.8l2.7-2.5l2.2-4.2l2.5-17.9l0.7-0.8
	l16.8-16.8l39.4,45.6l-21,22l-1.2-3.7l-8.4-4.6L140.5,189.6z"/>
<linearGradient id="SVGID_1_" gradientUnits="userSpaceOnUse" x1="59.7549" y1="-3875.855" x2="228.6549" y2="-3706.9548" gradientTransform="matrix(1 0 0 -1 0 -3604)">
	<stop  offset="1.027034e-07" style="stop-color:#0000FF"/>
	<stop  offset="0.3334" style="stop-color:#007AFF"/>
	<stop  offset="0.5359" style="stop-color:#00CCFF"/>
	<stop  offset="0.7034" style="stop-color:#2689BE"/>
	<stop  offset="1" style="stop-color:#0700C4"/>
</linearGradient>
<path class="st1" d="M234.2,200.9l31.4-32.9l6.5-6.8l-6.1-7.1l-63.3-73L194,71l-17.1-19.8l1.1,31.1l0.6,2.4l0.7,6.9l-25,25l-2.5,2.5
	l-0.5,3.4l-2.3,16.6l-32.5,30.5l-3.1,2.9l-0.1,4.3l-1.1,34.7l-0.5,16.2l14-6.1l82-35.2l-1.8-5.6l-72.7,17.8l0.5-15.1l1.2-2.9
	l30.8-28.9l2.7-2.5l0.5-3.6l2.3-16.5l2.3-2.5l21.5-21.5l1.1-0.2l48.1,55.6l-26.5,27.8c1.4,0.6,3,1.3,4.4,1.3
	C223,189.6,228.2,194.7,234.2,200.9z"/>
<linearGradient id="SVGID_2_" gradientUnits="userSpaceOnUse" x1="108.2348" y1="-3957.8347" x2="218.5347" y2="-3847.5347" gradientTransform="matrix(1 0 0 -1 0 -3604)">
	<stop  offset="1.027034e-07" style="stop-color:#0000FF"/>
	<stop  offset="0.3334" style="stop-color:#007AFF"/>
	<stop  offset="0.5359" style="stop-color:#00CCFF"/>
	<stop  offset="0.7034" style="stop-color:#2689BE"/>
	<stop  offset="1" style="stop-color:#0700C4"/>
</linearGradient>
<polygon class="st2" points="169.3,321.8 96.8,321.8 96.8,342.4 163.1,342.4 163.4,341.6 "/>
</svg>
