<?xml version="1.0" encoding="utf-8"?>
<!-- Generator: Adobe Illustrator 22.0.0, SVG Export Plug-In . SVG Version: 6.00 Build 0)  -->
<svg version="1.1" id="Layer_1" xmlns="http://www.w3.org/2000/svg" xmlns:xlink="http://www.w3.org/1999/xlink" x="0px" y="0px"
	 viewBox="0 0 393.6 393.6" style="enable-background:new 0 0 393.6 393.6;" xml:space="preserve">
<style type="text/css">
	.st0{opacity:0.62;fill:#1D1D4C;enable-background:new    ;}
	.st1{fill:url(#SVGID_1_);}
	.st2{fill:url(#SVGID_2_);}
	.st3{fill:url(#SVGID_3_);}
	.st4{fill:url(#SVGID_4_);}
	.st5{fill:url(#SVGID_5_);}
	.st6{fill:url(#SVGID_6_);}
	.st7{fill:url(#SVGID_7_);}
	.st8{fill:url(#SVGID_8_);}
	.st9{fill:url(#SVGID_9_);}
	.st10{fill:url(#SVGID_10_);}
	.st11{fill:url(#SVGID_11_);}
	.st12{fill:url(#SVGID_12_);}
	.st13{fill:url(#SVGID_13_);}
	.st14{fill:url(#SVGID_14_);}
	.st15{fill:url(#SVGID_15_);}
	.st16{fill:url(#SVGID_16_);}
	.st17{fill:none;}
	.st18{fill:url(#SVGID_17_);}
	.st19{fill:#1D1D4C;}
	.st20{fill:url(#SVGID_18_);}
	.st21{fill:url(#SVGID_19_);}
	.st22{fill:url(#SVGID_20_);}
	.st23{fill:url(#SVGID_21_);}
	.st24{fill:url(#SVGID_22_);}
	.st25{fill:url(#SVGID_23_);}
	.st26{fill:url(#SVGID_24_);}
	.st27{fill:url(#SVGID_25_);}
	.st28{fill:url(#SVGID_26_);}
	.st29{fill:url(#SVGID_27_);}
	.st30{fill:url(#SVGID_28_);}
	.st31{fill:url(#SVGID_29_);}
	.st32{fill:url(#SVGID_30_);}
	.st33{fill:url(#SVGID_31_);}
	.st34{fill:url(#SVGID_32_);}
	.st35{fill:url(#SVGID_33_);}
	.st36{fill:url(#SVGID_34_);}
</style>
<path class="st0" d="M198.3,197.4c0.3-0.2,0.6-0.5,0.9-0.7c0,0,0.1,0,0.1-0.1c8.7-6.6,15.1-11.9,14.7-12.8c-0.1-0.3-0.2-0.8-0.1-1.6
	c0,0,0,0,0,0l-0.1,0.1l-1.2-3.7l-8.4-4.6l-63.7,15.6l0.2-4.6l0.1-0.3l29.7-27.8l2.7-2.5l2.2-4.2l2.5-17.9l0.7-0.8l16.8-16.8l3.7,4.3
	c0.3-3.9,0.1-7.5-1.7-9.3c-0.7-0.6,7.1-16.2,13.9-29.3l-3.4-3.9l-8.7-10.1l-17.1-19.8l-12.3,4.8l1.1,31.1l0.2,1.5l0.5,1.9L172,89
	l-25.1,25.2l-2,3.9l-0.5,3.5l-2,14.1l-30.7,28.8l-3.1,2.9l-2.2,4.9l-0.1,4.2l-1.1,34.7l-0.5,16.2l9.8,6.6l14-6.1l68.2-29.3
	c0.3-0.2,0.6-0.4,0.9-0.7C197.8,197.8,198.1,197.6,198.3,197.4z"/>
<linearGradient id="SVGID_1_" gradientUnits="userSpaceOnUse" x1="49.5" y1="-3865.5999" x2="218.4" y2="-3696.7" gradientTransform="matrix(1 0 0 -1 0 -3604)">
	<stop  offset="1.027034e-07" style="stop-color:#0000FF"/>
	<stop  offset="0.3334" style="stop-color:#007AFF"/>
	<stop  offset="0.5359" style="stop-color:#00CCFF"/>
	<stop  offset="0.7034" style="stop-color:#2689BE"/>
	<stop  offset="1" style="stop-color:#0700C4"/>
</linearGradient>
<path class="st1" d="M202.7,81.1L194,71l-17.1-19.8l1.1,31.1l0.6,2.4l0.7,6.9l-25,25l-2.5,2.5l-0.5,3.4l-2.3,16.6l-32.5,30.5
	l-3.1,2.9l-0.1,4.3l-1.1,34.7l-0.5,16.2l14-6.1l82-35.2l-1.8-5.6l-72.7,17.8l0.5-15.1l1.2-2.9l30.8-28.9l2.7-2.5l0.5-3.6l2.3-16.5
	l2.3-2.5l21.5-21.5l1.1-0.2l2,2.3c1.6-3.9,5.6-12,9.8-20.1L202.7,81.1z"/>
<linearGradient id="SVGID_2_" gradientUnits="userSpaceOnUse" x1="94.5511" y1="-3944.1511" x2="204.8511" y2="-3833.8511" gradientTransform="matrix(1 0 0 -1 0 -3604)">
	<stop  offset="1.027034e-07" style="stop-color:#0000FF"/>
	<stop  offset="0.3334" style="stop-color:#007AFF"/>
	<stop  offset="0.5359" style="stop-color:#00CCFF"/>
	<stop  offset="0.7034" style="stop-color:#2689BE"/>
	<stop  offset="1" style="stop-color:#0700C4"/>
</linearGradient>
<polygon class="st2" points="114.5,321.8 96.8,321.8 96.8,342.4 108.4,342.4 108.6,341.6 "/>
</svg>
