<?xml version="1.0" encoding="utf-8"?>
<!-- Generator: Adobe Illustrator 22.0.0, SVG Export Plug-In . SVG Version: 6.00 Build 0)  -->
<svg version="1.1" id="Layer_1" xmlns="http://www.w3.org/2000/svg" xmlns:xlink="http://www.w3.org/1999/xlink" x="0px" y="0px"
	 viewBox="0 0 393.6 393.6" style="enable-background:new 0 0 393.6 393.6;" xml:space="preserve">
<style type="text/css">
	.st0{opacity:0.62;fill:#1D1D4C;enable-background:new    ;}
	.st1{fill:url(#SVGID_1_);}
	.st2{fill:url(#SVGID_2_);}
	.st3{fill:url(#SVGID_3_);}
	.st4{fill:url(#SVGID_4_);}
	.st5{fill:url(#SVGID_5_);}
	.st6{fill:url(#SVGID_6_);}
	.st7{fill:url(#SVGID_7_);}
	.st8{fill:url(#SVGID_8_);}
	.st9{fill:url(#SVGID_9_);}
	.st10{fill:url(#SVGID_10_);}
	.st11{fill:url(#SVGID_11_);}
	.st12{fill:url(#SVGID_12_);}
	.st13{fill:url(#SVGID_13_);}
	.st14{fill:url(#SVGID_14_);}
	.st15{fill:url(#SVGID_15_);}
	.st16{fill:url(#SVGID_16_);}
	.st17{fill:none;}
	.st18{fill:url(#SVGID_17_);}
	.st19{fill:#1D1D4C;}
	.st20{fill:url(#SVGID_18_);}
	.st21{fill:url(#SVGID_19_);}
	.st22{fill:url(#SVGID_20_);}
	.st23{fill:url(#SVGID_21_);}
	.st24{fill:url(#SVGID_22_);}
	.st25{fill:url(#SVGID_23_);}
	.st26{fill:url(#SVGID_24_);}
	.st27{fill:url(#SVGID_25_);}
	.st28{fill:url(#SVGID_26_);}
	.st29{fill:url(#SVGID_27_);}
	.st30{fill:url(#SVGID_28_);}
	.st31{fill:url(#SVGID_29_);}
	.st32{fill:url(#SVGID_30_);}
	.st33{fill:url(#SVGID_31_);}
	.st34{fill:url(#SVGID_32_);}
	.st35{fill:url(#SVGID_33_);}
	.st36{fill:url(#SVGID_34_);}
</style>
<path class="st0" d="M296.8,314.8h-1.3l3.3-7.8l-17-17.5l-51.4-52.8l-9.9-0.1L205.7,251l-0.1,9.9l22.8,23.4h-64.1l106.3-111.5
	l6.5-6.8l0.2-9.4l-6.1-7.1l-63.3-73l-8.7-10.1l-17.1-19.8l-12.3,4.8l1.1,31.1l0.2,1.5l0.5,1.9L172,89l-25.1,25.2l-2,3.9l-0.5,3.5
	l-2,14.1l-30.7,28.8l-3.1,2.9l-2.2,4.9l-0.1,4.2l-1.1,34.7l-0.5,16.2l9.8,6.6l14-6.1l70.6-30.3l-87.6,91.9l-16.7,17.4l3.3,7.7h-1.3
	l-7,7v20.6l7,7h200l7-7v-20.6L296.8,314.8z M204.2,174l-63.7,15.6l0.2-4.6l0.1-0.3l29.7-27.8l2.7-2.5l2.2-4.2l2.5-17.9l0.7-0.8
	l16.8-16.8l39.4,45.6l-21,22l-1.2-3.7L204.2,174z"/>
<g>
	
		<linearGradient id="SVGID_1_" gradientUnits="userSpaceOnUse" x1="141.65" y1="-4895.25" x2="251.95" y2="-4784.9502" gradientTransform="matrix(1 0 0 -1 0 -4508)">
		<stop  offset="1.027034e-07" style="stop-color:#0000FF"/>
		<stop  offset="0.3334" style="stop-color:#007AFF"/>
		<stop  offset="0.5359" style="stop-color:#00CCFF"/>
		<stop  offset="0.7034" style="stop-color:#2689BE"/>
		<stop  offset="1" style="stop-color:#0700C4"/>
	</linearGradient>
	<rect x="96.8" y="321.8" class="st1" width="200" height="20.6"/>
</g>
<linearGradient id="SVGID_2_" gradientUnits="userSpaceOnUse" x1="102.4" y1="-4822.5" x2="271.3" y2="-4653.6001" gradientTransform="matrix(1 0 0 -1 0 -4508)">
	<stop  offset="1.027034e-07" style="stop-color:#0000FF"/>
	<stop  offset="0.3334" style="stop-color:#007AFF"/>
	<stop  offset="0.5359" style="stop-color:#00CCFF"/>
	<stop  offset="0.7034" style="stop-color:#2689BE"/>
	<stop  offset="1" style="stop-color:#0700C4"/>
</linearGradient>
<polygon class="st2" points="276.8,294.4 220.5,246.4 215,251.7 245,291.3 148,291.3 265.6,168 272.1,161.2 266,154.1 202.7,81.1 
	202.7,81.1 194,71 194,71 176.9,51.2 178,82.3 178.6,84.7 178.6,84.7 179.3,91.6 154.3,116.6 151.8,119.1 151.3,122.5 149,139.1 
	116.5,169.6 113.4,172.5 113.3,176.8 112.2,211.5 111.7,227.7 125.7,221.6 207.7,186.4 205.9,180.8 133.2,198.6 133.7,183.5 
	134.9,180.6 165.7,151.7 168.4,149.2 168.9,145.6 171.2,129.1 173.5,126.6 195,105.1 196.1,104.9 244.2,160.5 116.5,294.5 
	99.8,311.9 123.9,311.9 269.4,311.9 293.8,311.9 "/>
</svg>
