<?xml version="1.0" encoding="utf-8"?>
<!-- Generator: Adobe Illustrator 22.0.0, SVG Export Plug-In . SVG Version: 6.00 Build 0)  -->
<svg version="1.1" id="Layer_1" xmlns="http://www.w3.org/2000/svg" xmlns:xlink="http://www.w3.org/1999/xlink" x="0px" y="0px"
	 viewBox="0 0 228.7 320.7" style="enable-background:new 0 0 228.7 320.7;" xml:space="preserve">
<style type="text/css">
	.st0{fill:#FFFFFF;}
</style>
<g>
	<rect x="16.8" y="285.1" class="st0" width="200" height="20.6"/>
</g>
<polygon class="st0" points="196.8,257.7 140.5,209.7 135,215 165,254.6 68,254.6 185.6,131.3 192.1,124.5 186,117.4 122.7,44.4 
	122.7,44.4 114,34.3 114,34.3 96.9,14.5 98,45.6 98.6,48 98.6,48 99.3,54.9 74.3,79.9 71.8,82.4 71.3,85.8 69,102.4 36.5,132.9 
	33.4,135.8 33.3,140.1 32.2,174.8 31.7,191 45.7,184.9 127.7,149.7 125.9,144.1 53.2,161.9 53.7,146.8 54.9,143.9 85.7,115 
	88.4,112.5 88.9,108.9 91.2,92.4 93.5,89.9 115,68.4 116.1,68.2 164.2,123.8 36.5,257.8 19.8,275.2 43.9,275.2 189.4,275.2 
	213.8,275.2 "/>
</svg>
