<?xml version="1.0" encoding="utf-8"?>
<!-- Generator: Adobe Illustrator 22.0.0, SVG Export Plug-In . SVG Version: 6.00 Build 0)  -->
<svg version="1.1" id="Layer_1" xmlns="http://www.w3.org/2000/svg" xmlns:xlink="http://www.w3.org/1999/xlink" x="0px" y="0px"
	 viewBox="0 0 393.6 393.6" style="enable-background:new 0 0 393.6 393.6;" xml:space="preserve">
<style type="text/css">
	.st0{opacity:0.62;fill:#1D1D4C;enable-background:new    ;}
	.st1{fill:url(#SVGID_1_);}
	.st2{fill:url(#SVGID_2_);}
	.st3{fill:url(#SVGID_3_);}
	.st4{fill:url(#SVGID_4_);}
	.st5{fill:url(#SVGID_5_);}
	.st6{fill:url(#SVGID_6_);}
	.st7{fill:url(#SVGID_7_);}
	.st8{fill:url(#SVGID_8_);}
	.st9{fill:url(#SVGID_9_);}
	.st10{fill:url(#SVGID_10_);}
	.st11{fill:url(#SVGID_11_);}
	.st12{fill:url(#SVGID_12_);}
	.st13{fill:url(#SVGID_13_);}
	.st14{fill:url(#SVGID_14_);}
	.st15{fill:url(#SVGID_15_);}
	.st16{fill:url(#SVGID_16_);}
	.st17{fill:none;}
	.st18{fill:url(#SVGID_17_);}
	.st19{fill:#1D1D4C;}
	.st20{fill:url(#SVGID_18_);}
	.st21{fill:url(#SVGID_19_);}
	.st22{fill:url(#SVGID_20_);}
	.st23{fill:url(#SVGID_21_);}
	.st24{fill:url(#SVGID_22_);}
	.st25{fill:url(#SVGID_23_);}
	.st26{fill:url(#SVGID_24_);}
	.st27{fill:url(#SVGID_25_);}
	.st28{fill:url(#SVGID_26_);}
	.st29{fill:url(#SVGID_27_);}
	.st30{fill:url(#SVGID_28_);}
	.st31{fill:url(#SVGID_29_);}
	.st32{fill:url(#SVGID_30_);}
	.st33{fill:url(#SVGID_31_);}
	.st34{fill:url(#SVGID_32_);}
	.st35{fill:url(#SVGID_33_);}
	.st36{fill:url(#SVGID_34_);}
</style>
<path class="st0" d="M212.9,184.8c-0.2-0.4-0.2-1.5,0-3c0.1-0.5,0.1-1.1,0.2-1.6l-0.5-1.6l-8.4-4.6l-63.7,15.6l0.2-4.6l0.1-0.3
	l14.1-13.2c-0.5,0.2-0.9,0.4-1.4,0.6c-5.8,2.5-11.9,5.2-17.9,7.8l-0.7,0.7l-1.2,2.9l-0.5,15.1l72.7-17.8l1.8,5.6l-82,35.2l-14,6.1
	l0.5-16.2l1.1-34.7l0.1-4.3l0.5-0.4c-2.1-1.4-4-2.7-5.6-3.9l-1.8,4.1l-0.1,4.2l-1.1,34.7l-0.5,16.2l9.8,6.6l14-6.1l68.7-29.5
	c0.3-0.2,0.6-0.5,1-0.7C206.9,191,213.3,185.7,212.9,184.8z"/>
<linearGradient id="SVGID_1_" gradientUnits="userSpaceOnUse" x1="63.95" y1="-2992.05" x2="232.85" y2="-2823.1499" gradientTransform="matrix(1 0 0 -1 0 -2716)">
	<stop  offset="1.027034e-07" style="stop-color:#0000FF"/>
	<stop  offset="0.3334" style="stop-color:#007AFF"/>
	<stop  offset="0.5359" style="stop-color:#00CCFF"/>
	<stop  offset="0.7034" style="stop-color:#2689BE"/>
	<stop  offset="1" style="stop-color:#0700C4"/>
</linearGradient>
<path class="st1" d="M113.3,176.8l-1.1,34.7l-0.5,16.2l14-6.1l82-35.2l-1.8-5.6l-72.7,17.8l0.5-15.1l1.2-2.9l0.7-0.7
	c-0.5,0.2-0.9,0.4-1.4,0.6c-4.3,1.9-13.1-3.6-20.3-8.5l-0.5,0.4L113.3,176.8z"/>
</svg>
